Coordinates
version=1
nRows=27
nColumns=12
inDegrees=yes

Units are S.I. units (second, meters, Newtons, ...)
Angles are in degrees

endheader
time	SC_y	SC_z	SC_x	AC_y	AC_z	AC_x	GH_y	GH_z	GH_yy	EL_x	PS_y
       0.0              -14.67         -3.645          37.89          55.08         -4.538          17.94          64.28          78.64         -82.36          18.53          9.029
   0.04042              -14.67         -3.645           37.9          55.08         -4.539          17.94          64.27          78.64         -82.37          18.53          9.049
   0.08083              -14.67         -3.644           37.9          55.08         -4.541          17.94          64.26          78.63         -82.37          18.54           9.07
    0.1213              -14.67         -3.643          37.91          55.08         -4.542          17.94          64.24          78.62         -82.38          18.54          9.092
    0.1617              -14.67         -3.643          37.92          55.08         -4.543          17.93          64.23          78.61         -82.39          18.54          9.116
    0.2021              -14.67         -3.642          37.92          55.07         -4.545          17.93          64.22           78.6          -82.4          18.54          9.142
    0.2425              -14.68         -3.641          37.93          55.07         -4.547          17.93          64.21          78.59         -82.41          18.55          9.169
    0.2829              -14.68          -3.64          37.94          55.07         -4.548          17.93          64.19          78.57         -82.42          18.55          9.198
    0.3233              -14.68         -3.639          37.95          55.07          -4.55          17.92          64.17          78.56         -82.43          18.55          9.228
    0.3638              -14.68         -3.638          37.96          55.06         -4.552          17.92          64.16          78.55         -82.45          18.56          9.262
    0.4042              -14.68         -3.636          37.97          55.06         -4.554          17.91          64.14          78.53         -82.46          18.56          9.297
    0.4446              -14.68         -3.635          37.98          55.06         -4.557          17.91          64.12          78.52         -82.48          18.57          9.336
     0.485              -14.68         -3.634           38.0          55.05         -4.559           17.9           64.1           78.5         -82.49          18.57          9.377
    0.5254              -14.68         -3.632          38.01          55.05         -4.562           17.9          64.08          78.48         -82.51          18.58          9.422
    0.5658              -14.68         -3.631          38.02          55.05         -4.565          17.89          64.05          78.46         -82.53          18.58           9.47
    0.6063              -14.68         -3.629          38.04          55.04         -4.568          17.89          64.02          78.44         -82.55          18.59          9.523
    0.6467              -14.68         -3.627          38.06          55.04         -4.572          17.88          63.99          78.41         -82.57          18.59           9.58
    0.6871              -14.68         -3.625          38.08          55.03         -4.575          17.87          63.96          78.39         -82.59           18.6          9.642
    0.7275              -14.68         -3.623           38.1          55.02         -4.579          17.87          63.93          78.36         -82.62          18.61           9.71
    0.7679              -14.69          -3.62          38.12          55.02         -4.584          17.86          63.89          78.33         -82.65          18.62          9.784
    0.8083              -14.69         -3.617          38.14          55.01         -4.589          17.85          63.85          78.29         -82.68          18.63          9.866
    0.8488              -14.69         -3.614          38.17           55.0         -4.594          17.84           63.8          78.26         -82.72          18.64          9.955
    0.8892              -14.69         -3.611           38.2          54.99           -4.6          17.83          63.75          78.21         -82.75          18.65          10.05
    0.9296              -14.69         -3.607          38.23          54.98         -4.607          17.82          63.69          78.17          -82.8          18.66          10.16
      0.97              -14.69         -3.603          38.27          54.97         -4.614           17.8          63.63          78.12         -82.84          18.67          10.29
      1.01               -14.7         -3.598          38.31          54.96         -4.623          17.79          63.56          78.06          -82.9          18.69          10.42
     1.051               -14.7         -3.593          38.36          54.95         -4.632          17.77          63.48           78.0         -82.95          18.71          10.58
